# xmcd
#
# Track frame offsets:
#	150
#	18741
#	37722
#	58307
#	81763
#	98123
#	114938
#	132344
#	146566
#	166973
#
# Disc length: 2566 seconds
#
# Revision: 0
# Processed by: cddbd v1.5.2PL0 Copyright (c) Steve Scherf et al.
# Submitted via: audiograbber 1.83.01
#
DISCID=7f0a040a
DTITLE=David Sinclair Trio - Take Me There
DYEAR=2011
DGENRE=Rock
TTITLE0=Living Like A Yo-Yo
TTITLE1=Loneliness (Won't Leave Me Alone)
TTITLE2=Years Disappear
TTITLE3=Looking For The Big Idea
TTITLE4=The Week Is Almost Over
TTITLE5=Perfect In Every Way
TTITLE6=Winter Of 2010
TTITLE7=When Love Goes To Sleep
TTITLE8=Motion Sickness
TTITLE9=Caledonian Skies
EXTD=
EXTT0=
EXTT1=
EXTT2=
EXTT3=
EXTT4=
EXTT5=
EXTT6=
EXTT7=
EXTT8=
EXTT9=
PLAYORDER=
